<svg id="Layer_1" data-name="Layer 1" xmlns="http://www.w3.org/2000/svg" viewBox="0 0 223.85 33.95"><defs><style>.cls-1{fill:#fff;}</style></defs><title>logo_text</title><path class="cls-1" d="M422.47,505c-3.1.4-3.3.7-3.3,3.65v4.2a27.44,27.44,0,0,0,.3,4.75c-3.1.7-7.15,1.8-11.35,1.8-11.35,0-18.25-7-18.25-17.1,0-10.55,8.6-16.85,18.6-16.85a51.17,51.17,0,0,1,10.4,1.25c.1,1.85.35,4.9.75,8l-1.5.3c-1.2-4.25-2.65-6.05-5.8-7.1a16.85,16.85,0,0,0-4.65-.65c-7.65,0-12.6,5.25-12.6,14.4,0,7.95,4.1,15.85,13.8,15.85a10,10,0,0,0,4.25-.85c1.05-.6,1.7-1.15,1.7-3.2v-4.1c0-3.65-.4-4.05-5.2-4.4v-1.45h12.85Z" transform="translate(-389.87 -485.48)"/><path class="cls-1" d="M445.27,518.68v-1.4c3.25-.4,3.65-.9,3-2.8s-1.65-4.45-2.7-7.6h-10.8c-.8,2.25-1.55,4.2-2.25,6.25-1.1,3.25-.4,3.65,3.7,4.15v1.4H424.62v-1.4c3.15-.4,3.95-.75,5.7-5.25l10.35-26.25,1.6-.3c3.15,8.55,6.6,18,9.75,26.65,1.6,4.35,2.05,4.75,5.6,5.15v1.4Zm-5-26.65c-1.6,4.3-3.3,8.85-4.8,12.8h9.35Z" transform="translate(-389.87 -485.48)"/><path class="cls-1" d="M492,505c-3.1.4-3.3.7-3.3,3.65v4.2a27.44,27.44,0,0,0,.3,4.75c-3.1.7-7.15,1.8-11.35,1.8-11.35,0-18.25-7-18.25-17.1,0-10.55,8.6-16.85,18.6-16.85a51.17,51.17,0,0,1,10.4,1.25c.1,1.85.35,4.9.75,8l-1.5.3c-1.2-4.25-2.65-6.05-5.8-7.1a16.85,16.85,0,0,0-4.65-.65c-7.65,0-12.6,5.25-12.6,14.4,0,7.95,4.1,15.85,13.8,15.85a10,10,0,0,0,4.25-.85c1.05-.6,1.7-1.15,1.7-3.2v-4.1c0-3.65-.4-4.05-5.2-4.4v-1.45H492Z" transform="translate(-389.87 -485.48)"/><path class="cls-1" d="M514.77,518.68v-1.4c3.25-.4,3.65-.9,3-2.8s-1.65-4.45-2.7-7.6h-10.8c-.8,2.25-1.55,4.2-2.25,6.25-1.1,3.25-.4,3.65,3.7,4.15v1.4H494.12v-1.4c3.15-.4,3.95-.75,5.7-5.25l10.35-26.25,1.6-.3c3.15,8.55,6.6,18,9.75,26.65,1.6,4.35,2.05,4.75,5.6,5.15v1.4Zm-5-26.65c-1.6,4.3-3.3,8.85-4.8,12.8h9.35Z" transform="translate(-389.87 -485.48)"/><path class="cls-1" d="M558.77,519.08c-.65,0-1.2-.05-1.85-.1-3.65-.25-5.6-1.2-7.8-4.3-1.85-2.55-3.65-5.7-5.25-8.25-1-1.6-1.65-1.9-4.2-1.9h-1.75v7.85c0,4.25.55,4.5,4.55,4.9v1.4H529.12v-1.4c4.15-.45,4.5-.65,4.5-4.9V492.43c0-4.25-.55-4.4-4.5-4.85v-1.4h12.75c3.65,0,6.1.45,8,1.7a7.47,7.47,0,0,1,3.4,6.6c0,4.3-2.75,7-6.45,8.6.9,1.55,3,4.9,4.55,7.15a45.91,45.91,0,0,0,4,5.15,7.2,7.2,0,0,0,3.65,2.3Zm-18.45-16.25c2.6,0,4.25-.4,5.5-1.45,1.95-1.45,2.75-3.45,2.75-6.15,0-5.35-3.55-7.3-7.4-7.3a4.58,4.58,0,0,0-2.65.5c-.45.35-.6.85-.6,2.15v12.25Z" transform="translate(-389.87 -485.48)"/><path class="cls-1" d="M560.72,518.68v-1.4c4.1-.45,4.5-.65,4.5-4.9V492.53c0-4.3-.4-4.5-4.5-4.95v-1.4h13.4v1.4c-4.15.45-4.55.65-4.55,4.95v19.85c0,4.3.4,4.45,4.55,4.9v1.4Z" transform="translate(-389.87 -485.48)"/><path class="cls-1" d="M613.72,487.58c-3.2.35-4.25.85-4.4,3.15-.05,1.6-.15,3.7-.15,8.35v20.05h-1.9L585.87,493v12.5c0,4.5.15,6.75.25,8.2.1,2.55,1.35,3.3,5,3.6v1.4H578.92v-1.4c3.1-.25,4.3-1,4.5-3.45.15-1.6.25-3.85.25-8.4V492.68a4.36,4.36,0,0,0-1-3.3c-.95-1.25-2-1.55-4.45-1.8v-1.4h7.5l21.2,25.15V499.08c0-4.65-.1-6.8-.25-8.3-.15-2.25-1.3-2.95-5.3-3.2v-1.4h12.35Z" transform="translate(-389.87 -485.48)"/></svg>