<svg id="Layer_1" data-name="Layer 1" xmlns="http://www.w3.org/2000/svg" xmlns:xlink="http://www.w3.org/1999/xlink" viewBox="0 0 937.75 937.75"><defs><style>.cls-1{fill:none;}.cls-2{clip-path:url(#clip-path);}.cls-3{fill:#fff;}</style><clipPath id="clip-path" transform="translate(-31.04 -28.01)"><rect class="cls-1" width="1000" height="1000"/></clipPath></defs><title>logo</title><g class="cls-2"><path class="cls-3" d="M967,497c0,251.29-209.08,455-467,455S33,748.29,33,497,242.08,42,500,42,967,245.71,967,497" transform="translate(-31.04 -28.01)"/><path class="cls-3" d="M581.54,614.6S585.87,476,612.89,429.15c0-.9-59.44-44.13-59.44-44.13s-30.23,93.67-25,119.34c-.4,0,2.5,64.4,2.5,64.4Z" transform="translate(-31.04 -28.01)"/><path class="cls-3" d="M762.11,117.7C695.28,172,632.64,261.27,632.64,261.27l44.76,15.05s60.84-107,115.68-134.81c.85-.43,1.68-.87,2.49-1.3Z" transform="translate(-31.04 -28.01)"/><path class="cls-3" d="M797.14,139.34c.69-.38,1.37-.77,2-1.15l-.77-.71Z" transform="translate(-31.04 -28.01)"/><path d="M768.11,120.58c-31.19,25.75-79.48,71-127,137.15l32.76,10.87s65.59-104.11,111.44-135.68Z" transform="translate(-31.04 -28.01)"/><path class="cls-3" d="M816.31,833.55a1030.1,1030.1,0,0,1-98.49-80.68c-56.68-52.55-134.79-136.8-185-239.8C509.86,466,494.12,412,486,352.41c-6.48-47.65-8.13-98.92-4.89-152.38,5.23-86.29,21.71-150.72,23.57-157.75-2.43,0-11.27,0-20.12-.05-14.1-.08-18.83-.15-20.44-.35-81.08,272,16.24,488.05,112.19,621.38,71.26,99,152.28,168.32,196.66,202.4Z" transform="translate(-31.04 -28.01)"/><path d="M810.48,840.19C660.34,738.13,372.76,478,498.12,40.88c-.51,0-24.13.87-24.13.87S301,485,779.29,861.1Z" transform="translate(-31.04 -28.01)"/><path d="M573.26,583.17S535.64,515.52,536,499.81s15.66-95.88,21.06-102.18l45,34.22s-32.43,101.78-28.83,151.32" transform="translate(-31.04 -28.01)"/><path class="cls-3" d="M550.44,766.18C602.33,711,633,670.55,635.23,622.4A33.38,33.38,0,0,0,634,611.74c-10.35-36.4-41.88-88.41-148-184.91a18.64,18.64,0,0,1-5.72-10c-5.66-27.38-32-141,114.29-155.33a14.92,14.92,0,0,0,9.59-5.76c44.4-66.18,161.34-115.55,151.51,19a4.2,4.2,0,0,0,5.49,4.3c26.54-8.7,54.55-18.58,77.61-30.12,23.45-11.72,94,218-110,319.51a15.2,15.2,0,0,0-8.12,10.75,378.34,378.34,0,0,1-34.11,102.42,341.89,341.89,0,0,1-112.34,127.6c-50.84,34.77-215.36,120.12-221.47,120.12h-28c-9.85,0,175.47-109.68,225.7-163.1" transform="translate(-31.04 -28.01)"/><path d="M602.18,530.45c23.22-63,33.93-150.5,59.32-185.07,1.87-2.55,1.88-6,.73-9-40.13-103.68-162-71.71-179.77,37.23a39.22,39.22,0,0,0-.17,14c2.3,11.38,4.72,24.32,42.61,56.29,21.42,21,44.25,45.13,74.76,87.08a1.43,1.43,0,0,0,2.52-.53" transform="translate(-31.04 -28.01)"/><path d="M673.4,331a2.77,2.77,0,0,1-4.4-.7c-6-11.64-27.51-49.8-55.13-60.86-5.62-2.24,50.68-70,89.78-70.84,29-.62,50.26,14,40.61,87.72a4.07,4.07,0,0,1-2.43,3.22c-8.77,3.79-42.17,16-68.43,41.46" transform="translate(-31.04 -28.01)"/><path d="M844.54,269.4c-.89-3.54-4.69-5.82-8.07-4.44-51.27,21-131.17,45.7-159.18,78.65C650.84,374.73,627.05,482,610.81,536.76a14.35,14.35,0,0,0,2.12,11.8c6.7,10,19.88,28.16,24.61,41.51a6,6,0,0,0,8,3.1c63.29-31,258-87.09,199-323.77" transform="translate(-31.04 -28.01)"/><path d="M643.52,614.62c0-9.07,5-12.5,9.89-14.83,14.34-6.82,42.73-19.23,53.54-18.95,6.45.17-18.92,124.91-131.8,211.7C511.51,841.47,454,872.13,342.86,929.28c.95.82-14,0-14,0s52.22-26.41,114.5-66.72c39.66-25.68,82.78-56.75,117-94.73,66.73-74.14,83.2-97.17,83.2-153.21" transform="translate(-31.04 -28.01)"/><path class="cls-3" d="M74.44,356.76l-18-5L40.62,401.59a64,64,0,0,0,20.06,4.89C122.29,412.57,209,513.26,209,513.26l41.17-41.61s-92.52-85.6-175.72-114.89" transform="translate(-31.04 -28.01)"/><path d="M56.5,358.89v31.9C107,392.74,212.66,502.92,212.66,502.92l30.17-30.28c-81.49-73.28-156-103.58-186.33-113.75" transform="translate(-31.04 -28.01)"/><path class="cls-3" d="M434.57,783.41S360.76,643.2,343.15,646.82c1.67.91,41.1-19,56.19-43.41.84,1.8,83.88,77.78,73.81,151.05,1.68-.9-38.58,28.95-38.58,28.95" transform="translate(-31.04 -28.01)"/><path d="M361.44,648.67s37-22,40-28c7,11,54,53,66,129,0,1-25.47,15.62-31,22-.64-3.07-42.37-96.3-75-123" transform="translate(-31.04 -28.01)"/><path class="cls-3" d="M310.7,721.64c273-144,227.08-414.26,214.66-414.26-22.1,0-48.69,12.53-58.83,16.21a3.62,3.62,0,0,1-4.8-2.82c-3.28-20-20-102.31-73-103.87-60.32-1.77-95.58,61.21-110,56.78-11.53-3.55-72.74-58.55-83.38-71.86-6.12-7.64-8.45-.24-8.87.89l-1.78,6.21c-59.43,259.91,49.47,433,60.32,472.8a142.06,142.06,0,0,1,4.44,25.72c5.56,82.8,22.31,157.84,32,195.76l53.47,26h11.26c-15.08-26.61-36.06-178.81-39-199.59-.89-6.21,1.59-7,3.55-8" transform="translate(-31.04 -28.01)"/><path d="M328.63,924.33h2.92a3,3,0,0,0,2.87-4c-24.78-73.51-36.31-174.36-37.6-192.3-.1-1.36-1.47-1.65-2.87-1.76-7-.52-26.37,1.43-29.91,1.8-1.41.16-2.88.85-3.06,2.23C257.6,756.41,287.28,871.6,297.53,911Z" transform="translate(-31.04 -28.01)"/><path class="cls-3" d="M726,904c12.93-89.48-84.83-146.39-90.2-145-6.45,1.61-45.29,50-54.55,59.37a2,2,0,0,1-3.1-.33c-106.7-165.28-179.87-19.9-177.7,2.62a2.12,2.12,0,0,1-2.31,2.32c-70.25-6.27-96.9,37.89-104.14,53.75a9.92,9.92,0,0,1-8.39,5.73c-12.46.84-20.87,4.26-26.35,9.24l92.08,45,119.07,25.57,51.11-.23Z" transform="translate(-31.04 -28.01)"/><path d="M263.76,697.69s33.17,1.14,47.38,11.44c0,0-34.15,3.35-48.33,10.29,0,0-.95-14.87.95-21.73" transform="translate(-31.04 -28.01)"/><path d="M295.39,691.7c-6.26-2.05-25.67-9.83-35.26-9.09,0,0-110-195.15-68.3-451.51.89-2.66,2.66-3.55,8,0,5.16,3.43,91.09,80,147.11,151.68a11.22,11.22,0,0,1,1.13,12c-41.12,80.46-79.84,109.83-51,295.48a1.29,1.29,0,0,1-1.67,1.43" transform="translate(-31.04 -28.01)"/><path d="M357.73,374.41c-11.72-16-49.44-66.79-64-80a5.2,5.2,0,0,1,0-7.74c103-92.25,137.74-56.55,152.48,38.88a9.86,9.86,0,0,1-5.71,10.48c-13.09,5.9-44.69,18.79-74.41,39.69a6,6,0,0,1-8.35-1.35" transform="translate(-31.04 -28.01)"/><path d="M510.1,325.83c-23.85,7.43-95.91,33.76-132.72,59.11a71.16,71.16,0,0,0-16.46,17.11c-26.59,41.88-87.42,125.64-47.56,282.47a6.5,6.5,0,0,0,5.37,4.51,108.61,108.61,0,0,0,14,.67A24.44,24.44,0,0,0,345,686.46c33.34-19.09,195.11-124,176.79-352.46-.54-6.79-7.36-9.52-11.71-8.17" transform="translate(-31.04 -28.01)"/><path d="M537.49,961.17a3,3,0,0,1-2.68-1.25c-8.62-14.86-76.3-93.82-115-121.21-6.41-4.54-6.65-16.29-5.67-24.09,3.25-25.86,70.06-124,151.43,9.94a28.61,28.61,0,0,1,4.14,14.71c.11,25.08-1.66,96.92-4.88,121.9Z" transform="translate(-31.04 -28.01)"/><path d="M717.76,901.8c12.46-76.62-70.67-129-77.17-128.35-6,.59-33.19,31.51-47.36,49.22a40.79,40.79,0,0,0-8.87,23.47l-9.83,97.31a72.7,72.7,0,0,0-.26,10.2Z" transform="translate(-31.04 -28.01)"/><path d="M342.38,927.22,415.28,955H517c-28.13-40.83-81.84-88.72-103.81-108.06a48.31,48.31,0,0,0-15.81-8.6c-47.68-13.47-80.9,17.73-89.12,41A17.44,17.44,0,0,0,310.65,894c7.47,9.69,19.63,21.89,31.73,33.21" transform="translate(-31.04 -28.01)"/><path class="cls-3" d="M499.91,28C241,28,31,237.93,31,496.88S241,965.76,499.91,965.76,968.79,755.84,968.79,496.88,758.87,28,499.91,28m0,918.87c-248.52,0-450-201.47-450-450s201.47-450,450-450,450,201.47,450,450-201.47,450-450,450" transform="translate(-31.04 -28.01)"/></g></svg>