<svg id="Layer_1" data-name="Layer 1" xmlns="http://www.w3.org/2000/svg" viewBox="0 0 268.61 40.74"><title>Untitled-1</title><path d="M429.45,502.3c-3.72.48-4,.84-4,4.38v5a32.93,32.93,0,0,0,.36,5.7c-3.72.84-8.58,2.16-13.62,2.16-13.62,0-21.9-8.46-21.9-20.52,0-12.66,10.32-20.22,22.32-20.22a61.41,61.41,0,0,1,12.48,1.5c.12,2.22.42,5.88.9,9.66l-1.8.36c-1.44-5.1-3.18-7.26-7-8.52a20.22,20.22,0,0,0-5.58-.78c-9.18,0-15.12,6.3-15.12,17.28,0,9.54,4.92,19,16.56,19a12,12,0,0,0,5.1-1c1.26-.72,2-1.38,2-3.84v-4.92c0-4.38-.48-4.86-6.24-5.28v-1.74h15.42Z" transform="translate(-390.33 -478.84)" fill="#231f20"/><path d="M456.81,518.68V517c3.9-.48,4.38-1.08,3.54-3.36s-2-5.34-3.24-9.12h-13c-1,2.7-1.86,5-2.7,7.5-1.32,3.9-.48,4.38,4.44,5v1.68H432V517c3.78-.48,4.74-.9,6.84-6.3l12.42-31.5,1.92-.36c3.78,10.26,7.92,21.6,11.7,32,1.92,5.22,2.46,5.7,6.72,6.18v1.68Zm-6-32c-1.92,5.16-4,10.62-5.76,15.36h11.22Z" transform="translate(-390.33 -478.84)" fill="#231f20"/><path d="M512.85,502.3c-3.72.48-4,.84-4,4.38v5a32.93,32.93,0,0,0,.36,5.7c-3.72.84-8.58,2.16-13.62,2.16-13.62,0-21.9-8.46-21.9-20.52,0-12.66,10.32-20.22,22.32-20.22a61.41,61.41,0,0,1,12.48,1.5c.12,2.22.42,5.88.9,9.66l-1.8.36c-1.44-5.1-3.18-7.26-7-8.52a20.22,20.22,0,0,0-5.58-.78c-9.18,0-15.12,6.3-15.12,17.28,0,9.54,4.92,19,16.56,19a12,12,0,0,0,5.1-1c1.26-.72,2-1.38,2-3.84v-4.92c0-4.38-.48-4.86-6.24-5.28v-1.74h15.42Z" transform="translate(-390.33 -478.84)" fill="#231f20"/><path d="M540.21,518.68V517c3.9-.48,4.38-1.08,3.54-3.36s-2-5.34-3.24-9.12h-13c-1,2.7-1.86,5-2.7,7.5-1.32,3.9-.48,4.38,4.44,5v1.68H515.43V517c3.78-.48,4.74-.9,6.84-6.3l12.42-31.5,1.92-.36c3.78,10.26,7.92,21.6,11.7,32,1.92,5.22,2.46,5.7,6.72,6.18v1.68Zm-6-32c-1.92,5.16-4,10.62-5.76,15.36h11.22Z" transform="translate(-390.33 -478.84)" fill="#231f20"/><path d="M593,519.16c-.77,0-1.43-.06-2.21-.12-4.38-.3-6.72-1.44-9.36-5.16-2.22-3.06-4.38-6.84-6.3-9.9-1.2-1.92-2-2.28-5-2.28H568v9.42c0,5.1.66,5.4,5.46,5.88v1.68h-16V517c5-.54,5.4-.78,5.4-5.88V487.18c0-5.1-.66-5.28-5.4-5.82v-1.68h15.3c4.38,0,7.32.54,9.6,2a9,9,0,0,1,4.08,7.92c0,5.16-3.3,8.4-7.74,10.32,1.08,1.86,3.66,5.88,5.46,8.58a55.09,55.09,0,0,0,4.74,6.18,8.64,8.64,0,0,0,4.38,2.76Zm-22.13-19.5c3.12,0,5.1-.48,6.6-1.74,2.34-1.74,3.3-4.14,3.3-7.38,0-6.42-4.26-8.76-8.88-8.76-1.74,0-2.76.24-3.18.6s-.72,1-.72,2.58v14.7Z" transform="translate(-390.33 -478.84)" fill="#231f20"/><path d="M595.35,518.68V517c4.92-.54,5.4-.78,5.4-5.88V487.3c0-5.16-.48-5.4-5.4-5.94v-1.68h16.08v1.68c-5,.54-5.46.78-5.46,5.94v23.82c0,5.16.48,5.34,5.46,5.88v1.68Z" transform="translate(-390.33 -478.84)" fill="#231f20"/><path d="M658.94,481.36c-3.84.42-5.1,1-5.28,3.78-.06,1.92-.18,4.44-.18,10v24.06H651.2l-25.67-31.38v15c0,5.4.18,8.1.3,9.84.12,3.06,1.62,4,5.93,4.32v1.68H617.19V517c3.72-.3,5.15-1.2,5.39-4.14.18-1.92.3-4.62.3-10.08v-15.3a5.26,5.26,0,0,0-1.19-4c-1.15-1.5-2.4-1.86-5.34-2.16v-1.68h9l25.44,30.18v-14.7c0-5.58-.12-8.16-.3-10-.18-2.7-1.56-3.54-6.36-3.84v-1.68h14.82Z" transform="translate(-390.33 -478.84)" fill="#231f20"/></svg>